<svg width="230" height="150" viewBox="0 0 230 150" fill="none" xmlns="http://www.w3.org/2000/svg">
<rect x="81.5" y="1.5" width="67" height="67" rx="8.5" stroke="white" stroke-width="3"/>
<path d="M113.5 49C113.5 49.8284 114.172 50.5 115 50.5C115.828 50.5 116.5 49.8284 116.5 49L115 49L113.5 49ZM116.061 19.9393C115.475 19.3536 114.525 19.3536 113.939 19.9393L104.393 29.4853C103.808 30.0711 103.808 31.0208 104.393 31.6066C104.979 32.1924 105.929 32.1924 106.515 31.6066L115 23.1213L123.485 31.6066C124.071 32.1924 125.021 32.1924 125.607 31.6066C126.192 31.0208 126.192 30.0711 125.607 29.4853L116.061 19.9393ZM115 49L116.5 49L116.5 21L115 21L113.5 21L113.5 49L115 49Z" fill="white"/>
<rect x="148.5" y="148.5" width="67" height="67" rx="8.5" transform="rotate(180 148.5 148.5)" stroke="white" stroke-width="3"/>
<path d="M116.5 100C116.5 99.1716 115.828 98.5 115 98.5C114.172 98.5 113.5 99.1716 113.5 100L115 100L116.5 100ZM113.939 129.061C114.525 129.646 115.475 129.646 116.061 129.061L125.607 119.515C126.192 118.929 126.192 117.979 125.607 117.393C125.021 116.808 124.071 116.808 123.485 117.393L115 125.879L106.515 117.393C105.929 116.808 104.979 116.808 104.393 117.393C103.808 117.979 103.808 118.929 104.393 119.515L113.939 129.061ZM115 100L113.5 100L113.5 128L115 128L116.5 128L116.5 100L115 100Z" fill="white"/>
<rect x="228.5" y="148.5" width="67" height="67" rx="8.5" transform="rotate(-180 228.5 148.5)" stroke="white" stroke-width="3"/>
<path d="M181 113.5C180.172 113.5 179.5 114.172 179.5 115C179.5 115.828 180.172 116.5 181 116.5L181 115L181 113.5ZM210.061 116.061C210.646 115.475 210.646 114.525 210.061 113.939L200.515 104.393C199.929 103.808 198.979 103.808 198.393 104.393C197.808 104.979 197.808 105.929 198.393 106.515L206.879 115L198.393 123.485C197.808 124.071 197.808 125.021 198.393 125.607C198.979 126.192 199.929 126.192 200.515 125.607L210.061 116.061ZM181 115L181 116.5L209 116.5L209 115L209 113.5L181 113.5L181 115Z" fill="white"/>
<rect x="1.5" y="81.5" width="67" height="67" rx="8.5" stroke="white" stroke-width="3"/>
<path d="M49 116.5C49.8284 116.5 50.5 115.828 50.5 115C50.5 114.172 49.8284 113.5 49 113.5L49 115L49 116.5ZM19.9393 113.939C19.3536 114.525 19.3536 115.475 19.9393 116.061L29.4853 125.607C30.0711 126.192 31.0208 126.192 31.6066 125.607C32.1924 125.021 32.1924 124.071 31.6066 123.485L23.1213 115L31.6066 106.515C32.1924 105.929 32.1924 104.979 31.6066 104.393C31.0208 103.808 30.0711 103.808 29.4853 104.393L19.9393 113.939ZM49 115L49 113.5L21 113.5L21 115L21 116.5L49 116.5L49 115Z" fill="white"/>
</svg>
