<svg width="70" height="70" viewBox="0 0 70 70" fill="none" xmlns="http://www.w3.org/2000/svg">
<rect x="1.5" y="1.5" width="67" height="67" rx="8.5" stroke="white" stroke-width="3"/>
<path d="M11.2269 42V27.4545H20.3462V29.3438H13.4215V33.7756H19.8704V35.6577H13.4215V40.1108H20.4315V42H11.2269ZM25.2308 35.5227V42H23.1072V31.0909H25.1456V32.8665H25.2805C25.5315 32.2888 25.9245 31.8248 26.4595 31.4744C26.9993 31.1241 27.6787 30.9489 28.4979 30.9489C29.2412 30.9489 29.8923 31.1051 30.451 31.4176C31.0097 31.7254 31.4429 32.1847 31.7507 32.7955C32.0585 33.4062 32.2124 34.1615 32.2124 35.0611V42H30.0888V35.3168C30.0888 34.526 29.8828 33.9081 29.4709 33.4631C29.0589 33.0133 28.4931 32.7884 27.7734 32.7884C27.281 32.7884 26.843 32.8949 26.4595 33.108C26.0807 33.321 25.7801 33.6335 25.5575 34.0455C25.3397 34.4527 25.2308 34.9451 25.2308 35.5227ZM40.1527 31.0909V32.7955H34.1939V31.0909H40.1527ZM35.7919 28.4773H37.9155V38.7969C37.9155 39.2088 37.977 39.5189 38.1001 39.7273C38.2232 39.9309 38.3819 40.0705 38.576 40.1463C38.7749 40.2173 38.9903 40.2528 39.2223 40.2528C39.3928 40.2528 39.5419 40.241 39.6697 40.2173C39.7976 40.1937 39.897 40.1747 39.968 40.1605L40.3516 41.9148C40.2285 41.9621 40.0533 42.0095 39.826 42.0568C39.5987 42.1089 39.3146 42.1373 38.9737 42.142C38.415 42.1515 37.8942 42.0521 37.4112 41.8438C36.9283 41.6354 36.5376 41.3134 36.2393 40.8778C35.9411 40.4422 35.7919 39.8954 35.7919 39.2372V28.4773ZM47.0863 42.2202C46.0115 42.2202 45.0858 41.9905 44.3093 41.5312C43.5375 41.0672 42.9409 40.4162 42.5195 39.5781C42.1029 38.7353 41.8945 37.7481 41.8945 36.6165C41.8945 35.4991 42.1029 34.5142 42.5195 33.6619C42.9409 32.8097 43.5281 32.1444 44.2809 31.6662C45.0385 31.188 45.9239 30.9489 46.9371 30.9489C47.5527 30.9489 48.1493 31.0507 48.7269 31.2543C49.3046 31.4579 49.823 31.7775 50.2823 32.2131C50.7416 32.6487 51.1038 33.2145 51.369 33.9105C51.6341 34.6018 51.7667 35.4422 51.7667 36.4318V37.1847H43.0948V35.5938H49.6857C49.6857 35.035 49.5721 34.5402 49.3448 34.1094C49.1175 33.6738 48.7979 33.3305 48.386 33.0795C47.9788 32.8286 47.5006 32.7031 46.9513 32.7031C46.3548 32.7031 45.8339 32.8499 45.3888 33.1435C44.9485 33.4323 44.6076 33.8111 44.3661 34.2798C44.1294 34.7438 44.011 35.2481 44.011 35.7926V37.0355C44.011 37.7647 44.1388 38.3849 44.3945 38.8963C44.6549 39.4077 45.0172 39.7983 45.4812 40.0682C45.9452 40.3333 46.4873 40.4659 47.1076 40.4659C47.5101 40.4659 47.877 40.4091 48.2085 40.2955C48.5399 40.1771 48.8263 40.0019 49.0678 39.7699C49.3093 39.5379 49.494 39.2514 49.6218 38.9105L51.6317 39.2727C51.4708 39.8646 51.1819 40.383 50.7653 40.8281C50.3533 41.2685 49.8349 41.6117 49.2099 41.858C48.5896 42.0994 47.8817 42.2202 47.0863 42.2202ZM54.1229 42V31.0909H56.1754V32.8239H56.2891C56.4879 32.2367 56.8383 31.7751 57.3402 31.4389C57.8468 31.098 58.4197 30.9276 59.0589 30.9276C59.1915 30.9276 59.3478 30.9323 59.5277 30.9418C59.7124 30.9512 59.8568 30.9631 59.9609 30.9773V33.0085C59.8757 32.9848 59.7242 32.9588 59.5064 32.9304C59.2886 32.8973 59.0708 32.8807 58.853 32.8807C58.3511 32.8807 57.9036 32.9872 57.5107 33.2003C57.1224 33.4086 56.8146 33.6998 56.5874 34.0739C56.3601 34.4432 56.2464 34.8646 56.2464 35.3381V42H54.1229Z" fill="white"/>
</svg>
