<svg width="70" height="70" viewBox="0 0 70 70" fill="none" xmlns="http://www.w3.org/2000/svg">
<rect x="1.5" y="1.5" width="67" height="67" rx="8.5" stroke="white" stroke-width="3"/>
<path d="M16.7836 42V27.4545H25.9029V29.3438H18.9782V33.7756H25.427V35.6577H18.9782V40.1108H25.9881V42H16.7836ZM36.7676 31.2756C36.6918 30.6032 36.3793 30.0824 35.8301 29.7131C35.2808 29.339 34.5895 29.152 33.7562 29.152C33.1596 29.152 32.6435 29.2467 32.2079 29.4361C31.7723 29.6207 31.4338 29.8764 31.1923 30.2031C30.9556 30.5251 30.8372 30.892 30.8372 31.304C30.8372 31.6496 30.9177 31.9479 31.0787 32.1989C31.2444 32.4498 31.4598 32.6605 31.725 32.831C31.9949 32.9967 32.2837 33.1364 32.5914 33.25C32.8992 33.3589 33.1951 33.4489 33.4792 33.5199L34.8997 33.8892C35.3637 34.0028 35.8395 34.1567 36.3272 34.3509C36.8149 34.545 37.2671 34.8007 37.6838 35.1179C38.1004 35.4351 38.4366 35.8281 38.6923 36.2969C38.9527 36.7656 39.0829 37.3267 39.0829 37.9801C39.0829 38.804 38.8699 39.5355 38.4437 40.1747C38.0223 40.8139 37.4092 41.3182 36.6042 41.6875C35.804 42.0568 34.8358 42.2415 33.6994 42.2415C32.6104 42.2415 31.6681 42.0687 30.8727 41.723C30.0772 41.3774 29.4546 40.8873 29.0048 40.2528C28.555 39.6136 28.3064 38.8561 28.2591 37.9801H30.4608C30.5034 38.5057 30.6738 38.9437 30.9721 39.294C31.2752 39.6397 31.661 39.8977 32.1298 40.0682C32.6033 40.2339 33.1217 40.3168 33.6852 40.3168C34.3055 40.3168 34.8571 40.2197 35.34 40.0256C35.8277 39.8267 36.2112 39.5521 36.4906 39.2017C36.7699 38.8466 36.9096 38.4323 36.9096 37.9588C36.9096 37.5279 36.7865 37.1752 36.5403 36.9006C36.2988 36.6259 35.9698 36.3987 35.5531 36.2188C35.1412 36.0388 34.6748 35.8802 34.1539 35.7429L32.4352 35.2741C31.2704 34.9569 30.3471 34.4905 29.6653 33.875C28.9882 33.2595 28.6497 32.4451 28.6497 31.4318C28.6497 30.5937 28.877 29.8622 29.3315 29.2372C29.786 28.6122 30.4016 28.1269 31.1781 27.7812C31.9546 27.4309 32.8306 27.2557 33.8059 27.2557C34.7908 27.2557 35.6596 27.4285 36.4125 27.7741C37.17 28.1198 37.7666 28.5956 38.2022 29.2017C38.6378 29.803 38.8651 30.4943 38.8841 31.2756H36.7676ZM53.7864 32.1847H51.5705C51.4853 31.7112 51.3266 31.2945 51.0946 30.9347C50.8626 30.5748 50.5785 30.2694 50.2424 30.0185C49.9062 29.7675 49.5298 29.5781 49.1131 29.4503C48.7012 29.3224 48.2632 29.2585 47.7992 29.2585C46.9611 29.2585 46.2106 29.4692 45.5478 29.8906C44.8896 30.312 44.3688 30.9299 43.9853 31.7443C43.6065 32.5587 43.4171 33.553 43.4171 34.7273C43.4171 35.911 43.6065 36.91 43.9853 37.7244C44.3688 38.5388 44.892 39.1544 45.5549 39.571C46.2177 39.9877 46.9635 40.196 47.7921 40.196C48.2514 40.196 48.687 40.1345 49.0989 40.0114C49.5156 39.8835 49.892 39.6965 50.2282 39.4503C50.5643 39.2041 50.8484 38.9034 51.0804 38.5483C51.3172 38.1884 51.4805 37.7765 51.5705 37.3125L53.7864 37.3196C53.668 38.0346 53.4384 38.6927 53.0975 39.294C52.7613 39.8906 52.3281 40.4067 51.7978 40.8423C51.2722 41.2732 50.6709 41.607 49.9938 41.8438C49.3167 42.0805 48.5781 42.1989 47.7779 42.1989C46.5184 42.1989 45.3962 41.9006 44.4114 41.304C43.4266 40.7027 42.65 39.8433 42.0819 38.7259C41.5184 37.6084 41.2367 36.2756 41.2367 34.7273C41.2367 33.1742 41.5208 31.8414 42.089 30.7287C42.6571 29.6113 43.4337 28.7543 44.4185 28.1577C45.4034 27.5563 46.5231 27.2557 47.7779 27.2557C48.5497 27.2557 49.2694 27.367 49.937 27.5895C50.6093 27.8073 51.213 28.1293 51.748 28.5554C52.2831 28.9768 52.7258 29.4929 53.0762 30.1037C53.4266 30.7098 53.6633 31.4034 53.7864 32.1847Z" fill="white"/>
</svg>
