<svg width="213" height="197" viewBox="0 0 213 197" fill="none" xmlns="http://www.w3.org/2000/svg">
<path d="M28.75 43.4599C31.195 41.6039 73.8702 41.4753 76.1982 43.3173C77.5212 44.3634 77.9485 49.0119 78.8145 71.7724C79.3874 86.8201 80.3165 99.7774 80.8945 100.772C82.1775 102.977 82.0577 104.018 82.8457 83.7802C83.3447 70.9686 83.8333 66.789 84.9072 66.1249C85.6812 65.6469 90.4062 64.9387 95.4072 64.5517C100.408 64.1647 106.075 63.2001 108 62.4081C112.549 60.5381 118.636 54.6163 121.201 49.5673C125.205 41.6855 123.862 42.0673 147.59 42.0673C159.293 42.0673 170.023 42.5069 171.435 43.0429C174.571 44.2359 174.784 47.6533 172.394 58.3701C166.924 82.8921 145.537 106.059 122.46 112.458C117.532 113.824 110.561 115.22 106.968 115.56C100.166 116.205 96.9883 117.389 98.3613 118.764C98.8091 119.206 115.894 120.067 136.332 120.678C156.774 121.288 173.613 121.85 173.75 121.928C173.888 122.009 174 133.32 174 147.067V172.067H111.117L106.368 165.817C98.9515 156.054 84.7223 138.699 83.0293 137.35C79.9363 134.886 79.9748 134.716 78.2168 158.403C77.5958 166.777 76.9239 170.503 75.9199 171.139C75.1379 171.633 63.8124 172.044 50.75 172.053L27 172.067V121.347L42.25 120.662C59.2798 119.898 64.5547 119.223 63.2988 117.967C62.3228 116.991 42.549 115.088 33.25 115.076L27 115.067V79.9277C27 47.636 27.1422 44.681 28.75 43.4599Z" fill="black"/>
</svg>
