<svg width="213" height="197" viewBox="0 0 213 197" fill="none" xmlns="http://www.w3.org/2000/svg">
<path d="M31.75 43.46C34.195 41.604 76.8702 41.4754 79.1982 43.3174C80.5212 44.3635 80.9485 49.0119 81.8145 71.7725C82.3874 86.8201 83.3165 99.7775 83.8945 100.772C85.1775 102.977 85.0577 104.018 85.8457 83.7803C86.3447 70.9686 86.8333 66.7891 87.9072 66.125C88.6812 65.647 93.4062 64.9388 98.4072 64.5518C103.408 64.1647 109.075 63.2002 111 62.4082C115.549 60.5381 121.636 54.6163 124.201 49.5674C128.205 41.6856 126.862 42.0674 150.59 42.0674C162.293 42.0674 173.023 42.507 174.435 43.043C177.571 44.236 177.784 47.6534 175.394 58.3701C169.924 82.8921 148.537 106.059 125.46 112.458C120.532 113.824 113.561 115.221 109.968 115.561C103.166 116.206 99.9883 117.389 101.361 118.764C101.809 119.206 118.894 120.067 139.332 120.678C159.774 121.288 176.613 121.85 176.75 121.928C176.888 122.009 177 133.32 177 147.067V172.067H114.117L109.368 165.817C101.951 156.054 87.7223 138.699 86.0293 137.35C82.9363 134.886 82.9748 134.717 81.2168 158.403C80.5958 166.777 79.9239 170.503 78.9199 171.139C78.1379 171.633 66.8124 172.044 53.75 172.053L30 172.067V121.347L45.25 120.662C62.2798 119.898 67.5547 119.223 66.2988 117.967C65.3228 116.991 45.549 115.088 36.25 115.076L30 115.067V79.9277C30 47.6361 30.1422 44.6811 31.75 43.46Z" fill="#666666"/>
</svg>
